# xmcd
# Track frame offsets:
# 150
# 9982
# 22177
# 31279
# 41573
# 51781
# 66655
# 77662
# 86072
# 94618
# 104262
# 114181
# 129329
# 142029
# 153182
#
# Disc length: 2236 seconds
# Revision: 1
# Processed by: cddbd v1.5.2PL0 Copyright (c) Steve Scherf et al.
# Submitted via: VisiTrax 2.11.3.279 - For more info visit www.synapsa.com
#
DISCID=bc08ba0f
DTITLE=Slim Dusty - I'll Take Mine Country Style
DYEAR=1985
DGENRE=Australian Country
TTITLE0=Slim Dusty - Cunnamulla Feller
TTITLE1=Slim Dusty With Anne - Daddy's Girl
TTITLE2=Slim Dusty - Christmas On The Station
TTITLE3=Slim Dusty With Joy - You'd Better Be Waiting
TTITLE4=Slim Dusty - I'll Take Mine Country Style
TTITLE5=Slim Dusty - The Drunkard
TTITLE6=Slim Dusty - My Pal Alcohol
TTITLE7=Slim Dusty - Along The Road To Gundagai
TTITLE8=Slim Dusty - The Ace Of Hearts
TTITLE9=Slim Dusty - If You Walk Out That Gate
TTITLE10=Slim Dusty - Maple Sugar Sweetheart
TTITLE11=Slim Dusty - Where The Dessert Flowers Bloom
TTITLE12=Slim Dusty - Rose Of Red River Valley
TTITLE13=Slim Dusty - Somebody's Mother
TTITLE14=Slim Dusty - A Word To Texas Jack
EXTD=1995 EMI Music Australia
EXTT0=
EXTT1=
EXTT2=
EXTT3=
EXTT4=
EXTT5=
EXTT6=
EXTT7=
EXTT8=
EXTT9=
EXTT10=
EXTT11=
EXTT12=
EXTT13=
EXTT14=
PLAYORDER=
